<svg xmlns="http://www.w3.org/2000/svg" viewBox="0 0 250 250">
  <defs>
    <style>
      .cls-1 {
        fill: #ff9100;
      }

      .cls-2 {
        fill: #212121;
      }
    </style>
  </defs>
  <title>IGVC IITK Logo (Small)</title>
  <g id="Logo_Small_" data-name="Logo (Small)">
    <g id="Logo-5" data-name="Logo">
      <g id="Wavefronts_as_Fill" data-name="Wavefronts as Fill">
        <g id="Main">
          <path id="Bottom_Outer" data-name="Bottom Outer" class="cls-1" d="M125,233a106.471,106.471,0,0,1-52.685-13.933A108.849,108.849,0,0,1,48.667,201.31a10,10,0,0,1,14.166-14.12C68.867,193.245,91.186,213,125,213c8.549,0,38.3-1.861,62.167-25.81a10,10,0,0,1,14.166,14.12,106.463,106.463,0,0,1-47.062,27.477A108.81,108.81,0,0,1,125,233Z"/>
          <path id="Bottom_Middle" data-name="Bottom Middle" class="cls-1" d="M125,198a71.8,71.8,0,0,1-35.618-9.445,73.371,73.371,0,0,1-15.953-12.02,7.5,7.5,0,1,1,10.642-10.57C88.041,169.961,102.722,183,125,183c5.632,0,25.229-1.229,40.929-17.035a7.5,7.5,0,0,1,10.642,10.57,71.794,71.794,0,0,1-31.8,18.615A73.368,73.368,0,0,1,125,198Z"/>
          <path id="Bottom_Inner" data-name="Bottom Inner" class="cls-1" d="M125,168a44.164,44.164,0,0,1-30.494-12.424,5,5,0,1,1,6.988-7.152,33.638,33.638,0,0,0,47.012,0,5,5,0,0,1,6.988,7.152A44.165,44.165,0,0,1,125,168Z"/>
          <path id="Top_Inner" data-name="Top Inner" class="cls-1" d="M152,103a4.985,4.985,0,0,1-3.494-1.423,33.637,33.637,0,0,0-47.012,0,5,5,0,1,1-6.988-7.152,43.636,43.636,0,0,1,60.988,0A5,5,0,0,1,152,103Z"/>
          <path id="Top_Middle" data-name="Top Middle" class="cls-1" d="M78.75,86.25a7.5,7.5,0,0,1-5.321-12.785,71.794,71.794,0,0,1,31.8-18.615A73.368,73.368,0,0,1,125,52a71.8,71.8,0,0,1,35.618,9.445,73.415,73.415,0,0,1,15.954,12.02,7.5,7.5,0,0,1-10.644,10.57C161.96,80.039,147.279,67,125,67c-5.632,0-25.23,1.228-40.929,17.035A7.476,7.476,0,0,1,78.75,86.25Z"/>
          <path id="Top_Outer" data-name="Top Outer" class="cls-1" d="M194.25,65.75a9.969,9.969,0,0,1-7.083-2.94C181.132,56.755,158.813,37,125,37c-8.549,0-38.3,1.861-62.167,25.81A10,10,0,0,1,48.667,48.69,106.463,106.463,0,0,1,95.729,21.213,108.81,108.81,0,0,1,125,17a106.471,106.471,0,0,1,52.685,13.933A108.867,108.867,0,0,1,201.333,48.69a10,10,0,0,1-7.083,17.06Z"/>
        </g>
      </g>
      <rect id="Central_Circle" data-name="Central Circle" class="cls-2" x="108.5" y="108.5" width="33" height="33" rx="16.5" ry="16.5"/>
    </g>
  </g>
</svg>
